<svg id="visual" viewBox="0 0 900 600" width="900" height="600" xmlns="http://www.w3.org/2000/svg" xmlns:xlink="http://www.w3.org/1999/xlink" version="1.1"><rect x="0" y="0" width="900" height="600" fill="#fff"></rect><path d="M0 491L18.8 481.5C37.7 472 75.3 453 112.8 458.7C150.3 464.3 187.7 494.7 225.2 508.2C262.7 521.7 300.3 518.3 337.8 507.7C375.3 497 412.7 479 450.2 479.2C487.7 479.3 525.3 497.7 562.8 506.2C600.3 514.7 637.7 513.3 675.2 499.5C712.7 485.7 750.3 459.3 787.8 449.3C825.3 439.3 862.7 445.7 881.3 448.8L900 452L900 601L881.3 601C862.7 601 825.3 601 787.8 601C750.3 601 712.7 601 675.2 601C637.7 601 600.3 601 562.8 601C525.3 601 487.7 601 450.2 601C412.7 601 375.3 601 337.8 601C300.3 601 262.7 601 225.2 601C187.7 601 150.3 601 112.8 601C75.3 601 37.7 601 18.8 601L0 601Z" fill="#B8D4F0" stroke-linecap="round" stroke-linejoin="miter"></path></svg>